<svg id="Camada_1" data-name="Camada 1" xmlns="http://www.w3.org/2000/svg" viewBox="0 0 218.2 48"><circle cx="24" cy="24" r="24" style="fill:#6062aa"/><path d="M28.72,37.79c-2.5,0-3-2.4-3.3-4.15-.22-1.18-.45-2.39-1.12-2.92h-.61a1.7,1.7,0,0,0-.31.34,7.13,7.13,0,0,0-.8,2.58c-.34,1.75-.8,4.15-3.3,4.15-1.76,0-3.31-1.62-4.73-4.93q-.41-.95-.78-2l-.06-.17c-.27-.78-.51-1.51-.74-2.27-.66-2.2-1.26-4.56-1.75-6.58-1.88-7.74,1.4-10.48,4.48-11.42,2.55-.77,5.2.91,6.78,1.92a7.18,7.18,0,0,0,.87.51,1.56,1.56,0,0,0,.37.1L24,13a8.2,8.2,0,0,0,1.94-.9c1.87-1,4.21-2.31,6.35-1.65a7.17,7.17,0,0,1,3.17,1.87A7.31,7.31,0,0,1,37.31,17a16.73,16.73,0,0,1-.53,4.79h0C34.81,29.91,32.57,37.79,28.72,37.79Zm-7.23-23.9,14,3.25M23,29l.21-.12" style="fill:#fff"/><path d="M65.62,32a7.2,7.2,0,0,1-3.53-.83,5.73,5.73,0,0,1-2.32-2.36,7.59,7.59,0,0,1-.83-3.62,8,8,0,0,1,.47-2.82,6,6,0,0,1,1.35-2.14,5.69,5.69,0,0,1,2.11-1.36,7.7,7.7,0,0,1,2.75-.47,7.16,7.16,0,0,1,3.52.83,5.73,5.73,0,0,1,2.33,2.35,7.46,7.46,0,0,1,.83,3.61A8.11,8.11,0,0,1,71.83,28a6,6,0,0,1-1.35,2.15,5.9,5.9,0,0,1-2.11,1.36A7.74,7.74,0,0,1,65.62,32Zm0-2.54A3.12,3.12,0,0,0,67.35,29a3.17,3.17,0,0,0,1.17-1.43,6,6,0,0,0,.41-2.36A4.79,4.79,0,0,0,68,22a3,3,0,0,0-2.4-1.05,3.23,3.23,0,0,0-1.74.46,3.12,3.12,0,0,0-1.16,1.42,5.86,5.86,0,0,0-.41,2.37,4.91,4.91,0,0,0,.9,3.19A3,3,0,0,0,65.62,29.43Z" style="fill:#b3b2b2"/><path d="M80.07,32a5.3,5.3,0,0,1-5-3.19,8.5,8.5,0,0,1-.72-3.62,8.32,8.32,0,0,1,.72-3.62,5.32,5.32,0,0,1,5-3.17,5.08,5.08,0,0,1,2.84.8,4,4,0,0,1,1.65,2.11h-.3V14.34a1.73,1.73,0,0,1,.43-1.26,1.69,1.69,0,0,1,1.23-.43,1.73,1.73,0,0,1,1.24.43,1.65,1.65,0,0,1,.44,1.26V30.2a1.71,1.71,0,0,1-.43,1.27,1.93,1.93,0,0,1-2.45,0,1.71,1.71,0,0,1-.43-1.27V28.12l.29.8A3.87,3.87,0,0,1,83,31.14,5.05,5.05,0,0,1,80.07,32ZM81,29.43A3.16,3.16,0,0,0,82.74,29a3.09,3.09,0,0,0,1.16-1.43,5.83,5.83,0,0,0,.42-2.36,4.85,4.85,0,0,0-.91-3.2A3,3,0,0,0,81,20.91a3.2,3.2,0,0,0-1.73.46,3.06,3.06,0,0,0-1.16,1.42,5.85,5.85,0,0,0-.42,2.37,4.85,4.85,0,0,0,.91,3.19A3,3,0,0,0,81,29.43Z" style="fill:#b3b2b2"/><path d="M97,32a7.22,7.22,0,0,1-3.53-.83,5.8,5.8,0,0,1-2.32-2.36,7.59,7.59,0,0,1-.83-3.62,8,8,0,0,1,.47-2.82,6,6,0,0,1,1.35-2.14,5.77,5.77,0,0,1,2.11-1.36A7.74,7.74,0,0,1,97,18.37a7.22,7.22,0,0,1,3.53.83,5.77,5.77,0,0,1,2.32,2.35,7.46,7.46,0,0,1,.83,3.61,8.11,8.11,0,0,1-.47,2.83,6,6,0,0,1-1.35,2.15,5.82,5.82,0,0,1-2.11,1.36A7.7,7.7,0,0,1,97,32Zm0-2.54a3,3,0,0,0,2.9-1.91,5.84,5.84,0,0,0,.41-2.36,4.85,4.85,0,0,0-.9-3.2A3,3,0,0,0,97,20.91a3.23,3.23,0,0,0-1.74.46,3.19,3.19,0,0,0-1.16,1.42,6,6,0,0,0-.41,2.37,4.85,4.85,0,0,0,.91,3.19A3,3,0,0,0,97,29.43Z" style="fill:#b3b2b2"/><path d="M108.12,31.91a1.6,1.6,0,0,1-1.23-.44,1.71,1.71,0,0,1-.43-1.27V20.11a1.69,1.69,0,0,1,.43-1.26,1.89,1.89,0,0,1,2.4,0,1.69,1.69,0,0,1,.43,1.26v1.81l-.29-.67a4.36,4.36,0,0,1,1.83-2.15,5.38,5.38,0,0,1,2.81-.73,5.18,5.18,0,0,1,2.6.59,3.64,3.64,0,0,1,1.52,1.77,7.73,7.73,0,0,1,.5,3V30.2a1.75,1.75,0,0,1-.42,1.27,2,2,0,0,1-2.47,0,1.68,1.68,0,0,1-.44-1.27V23.9a3.49,3.49,0,0,0-.58-2.22A2.16,2.16,0,0,0,113,21a3,3,0,0,0-2.34.92,3.41,3.41,0,0,0-.87,2.44V30.2A1.5,1.5,0,0,1,108.12,31.91Z" style="fill:#b3b2b2"/><path d="M128.07,32a6.43,6.43,0,0,1-2.9-.59,3.77,3.77,0,0,1-1.72-1.72,6.41,6.41,0,0,1-.56-2.82V21.15H121.5a1.34,1.34,0,0,1-1-.34,1.22,1.22,0,0,1-.35-.92,1.2,1.2,0,0,1,.35-.93,1.37,1.37,0,0,1,1-.32h1.39V16.21a1.69,1.69,0,0,1,.44-1.26,1.73,1.73,0,0,1,1.24-.43,1.67,1.67,0,0,1,1.23.43,1.69,1.69,0,0,1,.43,1.26v2.43h2.83a1.37,1.37,0,0,1,1,.32,1.19,1.19,0,0,1,.34.93,1.21,1.21,0,0,1-.34.92,1.34,1.34,0,0,1-1,.34h-2.83v5.5a2.79,2.79,0,0,0,.56,1.92,2.29,2.29,0,0,0,1.82.64,3.23,3.23,0,0,0,.8-.08A5.9,5.9,0,0,1,130,29a.62.62,0,0,1,.53.2,1.35,1.35,0,0,1,.22.92,2.55,2.55,0,0,1-.17,1,1,1,0,0,1-.63.57,7.19,7.19,0,0,1-.91.2A5.35,5.35,0,0,1,128.07,32Z" style="fill:#b3b2b2"/><path d="M138.17,32a7.22,7.22,0,0,1-3.53-.83,5.8,5.8,0,0,1-2.32-2.36,7.59,7.59,0,0,1-.83-3.62,8,8,0,0,1,.47-2.82,6,6,0,0,1,1.35-2.14,5.69,5.69,0,0,1,2.11-1.36,7.7,7.7,0,0,1,2.75-.47,7.22,7.22,0,0,1,3.53.83A5.77,5.77,0,0,1,144,21.55a7.46,7.46,0,0,1,.83,3.61,8.11,8.11,0,0,1-.47,2.83A6,6,0,0,1,143,30.14a5.9,5.9,0,0,1-2.11,1.36A7.74,7.74,0,0,1,138.17,32Zm0-2.54a3.16,3.16,0,0,0,1.74-.48,3.21,3.21,0,0,0,1.16-1.43,6,6,0,0,0,.41-2.36,4.79,4.79,0,0,0-.91-3.2,3,3,0,0,0-2.4-1.05,3.23,3.23,0,0,0-1.74.46,3.12,3.12,0,0,0-1.16,1.42,5.86,5.86,0,0,0-.41,2.37,4.91,4.91,0,0,0,.9,3.19A3,3,0,0,0,138.17,29.43Z" style="fill:#b3b2b2"/><path d="M153.4,31.94a6.37,6.37,0,0,1-3.37-.85,5.67,5.67,0,0,1-2.18-2.39,8,8,0,0,1-.76-3.57,8.32,8.32,0,0,1,.43-2.78,5.68,5.68,0,0,1,1.25-2.1,5.51,5.51,0,0,1,2-1.32,7.31,7.31,0,0,1,2.64-.45,7.22,7.22,0,0,1,2,.29,5,5,0,0,1,1.9,1,.83.83,0,0,1,.34.45.77.77,0,0,1,0,.52,1,1,0,0,1-.26.43.87.87,0,0,1-.47.2.86.86,0,0,1-.58-.19,4.6,4.6,0,0,0-1.41-.75,5,5,0,0,0-1.39-.21,4.62,4.62,0,0,0-1.82.33,3.78,3.78,0,0,0-1.31.95,4.33,4.33,0,0,0-.81,1.52,7.12,7.12,0,0,0-.28,2.12,5.65,5.65,0,0,0,1.09,3.67,3.81,3.81,0,0,0,3.13,1.35,4.66,4.66,0,0,0,2.8-1,.83.83,0,0,1,.56-.18.77.77,0,0,1,.46.2.88.88,0,0,1,.25.44.92.92,0,0,1,0,.52.82.82,0,0,1-.35.44,5.38,5.38,0,0,1-1.87,1A6.57,6.57,0,0,1,153.4,31.94Z" style="fill:#b3b2b2"/><path d="M164.21,31.94a3.65,3.65,0,0,1-2.93-1.17,5,5,0,0,1-1-3.37V13.78a1.14,1.14,0,0,1,.27-.82,1,1,0,0,1,.8-.28,1.1,1.1,0,0,1,.8.28,1.07,1.07,0,0,1,.29.82V27.24a3.39,3.39,0,0,0,.58,2.15,2.06,2.06,0,0,0,1.7.71,2.58,2.58,0,0,0,.42,0,2.43,2.43,0,0,1,.38,0,.44.44,0,0,1,.41.14,1.15,1.15,0,0,1,.12.64,1.07,1.07,0,0,1-.21.72,1.18,1.18,0,0,1-.7.32l-.45.05Z" style="fill:#b3b2b2"/><path d="M173.43,31.94a6.29,6.29,0,0,1-3.28-.83A5.51,5.51,0,0,1,168,28.78a7.83,7.83,0,0,1-.77-3.57,8.69,8.69,0,0,1,.43-2.79,5.82,5.82,0,0,1,1.26-2.13,5.73,5.73,0,0,1,2-1.35,6.7,6.7,0,0,1,2.55-.46,6.33,6.33,0,0,1,3.29.82,5.73,5.73,0,0,1,2.15,2.34,7.83,7.83,0,0,1,.76,3.57A8.32,8.32,0,0,1,179.2,28,5.93,5.93,0,0,1,178,30.11a5.49,5.49,0,0,1-2,1.36A6.66,6.66,0,0,1,173.43,31.94Zm0-1.74a3.8,3.8,0,0,0,2.11-.58,3.85,3.85,0,0,0,1.4-1.71,6.67,6.67,0,0,0,.5-2.7,5.6,5.6,0,0,0-1.08-3.71,3.64,3.64,0,0,0-2.93-1.29,3.76,3.76,0,0,0-2.12.58,3.7,3.7,0,0,0-1.39,1.68,6.71,6.71,0,0,0-.5,2.74,5.59,5.59,0,0,0,1.1,3.7A3.63,3.63,0,0,0,173.43,30.2Z" style="fill:#b3b2b2"/><path d="M187.48,31.94a5.3,5.3,0,0,1-2.6-.57,3.64,3.64,0,0,1-1.55-1.73,6.85,6.85,0,0,1-.52-2.85V19.63a1.08,1.08,0,0,1,.28-.83,1.1,1.1,0,0,1,.79-.27,1.13,1.13,0,0,1,.81.27,1.08,1.08,0,0,1,.28.83v7.13a3.9,3.9,0,0,0,.71,2.55,2.75,2.75,0,0,0,2.23.84,3.52,3.52,0,0,0,2.7-1.12,4.17,4.17,0,0,0,1-2.94V19.63a1.08,1.08,0,0,1,.28-.83,1.14,1.14,0,0,1,.82-.27,1,1,0,0,1,1.06,1.1V30.77c0,.74-.34,1.12-1,1.12a1,1,0,0,1-.79-.3,1.16,1.16,0,0,1-.28-.82V28.33l.35.38a4.59,4.59,0,0,1-1.75,2.4A4.9,4.9,0,0,1,187.48,31.94Z" style="fill:#b3b2b2"/><path d="M202.81,31.94a5.55,5.55,0,0,1-3-.83,5.44,5.44,0,0,1-2-2.33,8.39,8.39,0,0,1-.71-3.57,8.39,8.39,0,0,1,.71-3.59,5.33,5.33,0,0,1,2-2.33,5.63,5.63,0,0,1,3-.81,5.08,5.08,0,0,1,3,.88,4.27,4.27,0,0,1,1.69,2.38h-.3v-8a1.15,1.15,0,0,1,.28-.82,1.1,1.1,0,0,1,.82-.28,1.06,1.06,0,0,1,.79.28,1.15,1.15,0,0,1,.28.82v17a1.16,1.16,0,0,1-.27.82,1.2,1.2,0,0,1-1.59,0,1.12,1.12,0,0,1-.28-.82V28.23l.29.37A4.31,4.31,0,0,1,205.85,31,5.07,5.07,0,0,1,202.81,31.94Zm.46-1.74a3.82,3.82,0,0,0,2.11-.58,3.91,3.91,0,0,0,1.4-1.71,6.67,6.67,0,0,0,.5-2.7,5.55,5.55,0,0,0-1.09-3.71,3.61,3.61,0,0,0-2.92-1.29,3.76,3.76,0,0,0-2.12.58,3.7,3.7,0,0,0-1.39,1.68,6.71,6.71,0,0,0-.5,2.74,5.59,5.59,0,0,0,1.1,3.7A3.63,3.63,0,0,0,203.27,30.2Z" style="fill:#b3b2b2"/></svg>