<svg xmlns="http://www.w3.org/2000/svg" viewBox="0 0 3446.22 2384.92"><defs><style>.cls-1{fill:#999be0;}.cls-2{fill:#a4a9d8;}.cls-3{fill:#888ba5;}.cls-4{fill:#e0e0e2;}.cls-5{fill:none;}.cls-6{fill:#425899;}.cls-7{fill:#a9addb;}.cls-10,.cls-17,.cls-8{fill:#fff;}.cls-8{stroke:#a4a9d8;stroke-miterlimit:10;stroke-width:15px;}.cls-9{fill:#d3d3dd;}.cls-11{fill:#f2faff;}.cls-12{fill:#9797bf;}.cls-13{fill:#b4b5d9;}.cls-14{fill:#c4e8ff;}.cls-15{fill:#a1a1b2;}.cls-16{fill:#8cd6ff;}.cls-17{opacity:0.3;}.cls-18{fill:#848bb7;}.cls-19{fill:#30596e;}.cls-20{fill:#6969af;}.cls-21{fill:#8383aa;}.cls-22{fill:#9397b2;}.cls-23{fill:#7476ab;}.cls-24{fill:#d6d7e5;}.cls-25{fill:#4ba8d6;}.cls-26{fill:#0e0e0e;}.cls-27{fill:#231f20;}.cls-28{fill:#9eddae;}.cls-29{fill:#e67a5c;}.cls-30{fill:#c2674e;}.cls-31{fill:#f0f0f0;}.cls-32{fill:#282828;}.cls-33{fill:#ff9c80;}.cls-34{fill:#0d0d0d;}.cls-35{fill:#d9f2ff;}.cls-36{fill:#3a312f;}.cls-37{fill:#ffa599;}.cls-38{fill:#fd5655;}.cls-39{fill:#8689a3;}</style></defs><g id="patient"><rect class="cls-1" x="2413.1" y="126.42" width="47.35" height="2256.05"/><rect class="cls-2" x="2513.94" y="363.4" width="932.28" height="904.89"/><rect class="cls-3" x="2544.06" y="396.75" width="873.89" height="843.9"/><path class="cls-4" d="M3418,1240.66V824.74a3,3,0,0,0-.42,0,3.27,3.27,0,0,0-3.8,3.13v30.49c-14,2.56-12,16.5-11.95,27.92-21.92,7.58-20.51,28.27-19.94,48.31h-17.11v61.27c-15.65,7-25.72,16.82-25.72,29.44v102h-19.85v-405h-16.56V683.49h-95v38.74h-16.77V1056.7H3174V872l-55.83-32.89V784.38h-39v0h-7.36v0h-.06v29.78c-.2.18-.76.57-1,.73V815l-36,38.37v264.07a18.65,18.65,0,0,0-8.34,3.35c-3.28,2.19-4.48,4.61-6.63,6.54h-8.71V1017.79h-27.22V744.36l-92,93.57v179.86H2870.4v-.29h-10.17V829.72H2792v297.56h-.08V884.7h-77.64V986h-66.88v78.35l-3.41-2.26h-21.62V983.37H2592V962.68H2544v278Z"/><rect class="cls-5" x="2544.06" y="396.75" width="873.89" height="843.9"/><rect class="cls-2" x="2952.25" y="378.15" width="28.76" height="890.14"/><rect class="cls-2" x="2965.7" y="361.19" width="28.76" height="924.06" transform="translate(3803.3 -2156.86) rotate(90)"/><path class="cls-3" d="M3100.54,2281.11h0A127.49,127.49,0,0,0,3228,2153.62V1979.83h-255v173.79A127.49,127.49,0,0,0,3100.54,2281.11Z"/><rect class="cls-6" x="3228.02" y="2111.17" width="14.13" height="269.75" transform="translate(6470.17 4492.09) rotate(180)"/><rect class="cls-6" x="2958.92" y="2111.17" width="14.13" height="269.75" transform="translate(5931.97 4492.09) rotate(180)"/><rect class="cls-6" x="3067.05" y="2111.17" width="14.13" height="269.75" transform="translate(6148.23 4492.09) rotate(180)"/><rect class="cls-6" x="3100.21" y="2153.3" width="14.13" height="269.75" transform="translate(5395.44 -819.1) rotate(90)"/><path class="cls-7" d="M3058.12,1651.54c23.82,12.67,5,43.82,14.76,73.34s48.94,28.81,34.14,81.64c-9.12,32.54-41.41,12.15-40.67,54.45s16.75,41.27,4.32,63c-21.67,37.92-95.54,16.7-96.13-25.63s34.86-56.74,4.92-76.43-41.92-28.65-22.21-56.81c24.39-34.85,62.21-33.79,51.63-61S3026.62,1634.77,3058.12,1651.54Z"/><path class="cls-6" d="M3045.54,1978.87l-6.21,1.78c-42.15-146.91-2.68-285.24-2.28-286.62l6.2,1.81C3042.85,1697.21,3003.91,1833.82,3045.54,1978.87Z"/><path class="cls-7" d="M3374.22,1620.7c17.58,31.55-26.19,52.91-36.66,93.19s36.45,51.87-18.56,100.53c-33.88,30-42.2,12.77-51.9,76.36-8.55,56-53.38,5.49-83.15,39.64-38.42,44.06-106.68-44.68-76.6-92.7s68.65-38,49.28-81.92-.83-78.68,41.78-96c52.73-21.48,74.4,22.59,82.26-15.69S3351,1579,3374.22,1620.7Z"/><path class="cls-6" d="M3122.4,1979.65c58.55-193.44,201.49-318.68,202.92-319.92l-5.65-6.54c-1.45,1.26-146.27,128.15-205.54,324Z"/><path class="cls-3" d="M455.61,2281.11h0a127.48,127.48,0,0,1-127.48-127.49V1979.83h255v173.79A127.49,127.49,0,0,1,455.61,2281.11Z"/><rect class="cls-6" x="314" y="2111.17" width="14.13" height="269.75"/><rect class="cls-6" x="583.1" y="2111.17" width="14.13" height="269.75"/><rect class="cls-6" x="474.97" y="2111.17" width="14.13" height="269.75"/><rect class="cls-6" x="441.81" y="2153.3" width="14.13" height="269.75" transform="translate(2737.05 1839.3) rotate(90)"/><path class="cls-7" d="M441.48,1651.54c-23.82,12.67-5,43.82-14.76,73.34s-49,28.81-34.14,81.64c9.12,32.54,41.41,12.15,40.67,54.45s-16.75,41.27-4.32,63c21.67,37.92,95.54,16.7,96.12-25.63s-34.85-56.74-4.91-76.43,41.92-28.65,22.21-56.81c-24.39-34.85-62.21-33.79-51.63-61S473,1634.77,441.48,1651.54Z"/><path class="cls-6" d="M454.06,1978.87l6.21,1.78c42.15-146.91,2.68-285.24,2.28-286.62l-6.2,1.81C456.75,1697.21,495.68,1833.82,454.06,1978.87Z"/><path class="cls-7" d="M708.07,1779.45c9.78,18.65-16.06,30.45-22.76,53.78s18.88,40.12-13.91,67.67c-20.2,17-32-10.4-50.18,17.2s-7.36,34-25,42.54c-30.65,14.91-68.95-31.28-50.69-58.83s47.44-21.24,36.8-47.11-14.42-36.92,10.67-46.4c31.06-11.74,55,5.58,60.13-16.61S695.14,1754.78,708.07,1779.45Z"/><path class="cls-6" d="M555.92,1985l-4.79-1.58c37.47-113.27,123.79-185.09,124.66-185.8l3.19,3.89C678.13,1802.18,592.91,1873.12,555.92,1985Z"/><path class="cls-7" d="M122.4,1626.66c-17.58,31.54,26.19,52.9,36.66,93.18s-36.44,51.87,18.56,100.53c33.88,30,42.2,12.78,51.9,76.37,8.55,56,53.39,5.48,83.16,39.63,38.41,44.07,106.67-44.67,76.59-92.7s-68.65-38-49.28-81.92.83-78.67-41.77-96c-52.73-21.48-74.41,22.59-82.26-15.68S145.65,1584.93,122.4,1626.66Z"/><path class="cls-6" d="M374.22,1985.6c-58.55-193.43-201.49-318.68-202.92-319.92l5.65-6.54c1.46,1.26,146.28,128.15,205.54,324Z"/><rect class="cls-8" x="7.5" y="398.7" width="474.9" height="569.06"/><path class="cls-4" d="M389.62,622.53c-3.82,27.67-39.53,90.69-46.37,99.54-7.52,9.66-30,132.64-61.58,127.1-15-30.38-19.5-118.82-42-114.67s-33,116-42,114.67-45-41.44-57.07-142.31c0,0-22.59-42.33-32.18-75.29-3.26-11.19-5-21.32-3.85-28.32,4.5-27.64,39-44.21,58.56-47s66.07,24.87,84.1,22.1,67.55-29,82.57-24.87,57,40.07,60.06,62.17A25.53,25.53,0,0,1,389.62,622.53Z"/><path class="cls-9" d="M389.62,622.53c-3.82,27.67-39.53,90.69-46.37,99.54-7.52,9.66-30,132.64-61.58,127.1-15-30.38-19.5-118.82-42-114.67s-33,116-42,114.67-45-41.44-57.07-142.31c0,0-22.59-42.33-32.18-75.29,19.71,13.49,36.74,49.24,77.47,56.71,71.81,13.14,83.74-6,121.18-11.09s49.55-28.32,75.84-49.56C385.23,625.7,387.51,624,389.62,622.53Z"/><path class="cls-10" d="M167,570.6s-25.83,21.16-27.31,48.59,37,67.75,37,67.75,4.45,97.87,11.86,123.08c-20.76-39.29-28.17-116.41-28.17-116.41s-32.12-35-38.27-63.77C113,587.07,161.08,574.31,167,570.6Z"/><rect class="cls-9" x="152.34" y="457.63" width="192.89" height="20.25"/><rect class="cls-8" x="667.6" y="7.5" width="399.98" height="479.29"/><rect class="cls-9" x="789.59" y="57.14" width="162.46" height="17.05"/><rect class="cls-9" x="707.45" y="430.74" width="162.46" height="17.05"/><path class="cls-4" d="M989.45,196c-3.23,23.3-33.3,76.38-39.06,83.84-6.34,8.14-25.3,111.71-51.87,107.05-12.65-25.59-16.42-100.08-35.4-96.58s-27.83,97.74-35.4,96.58S789.78,352,779.65,267.05c0,0-19-35.65-27.1-63.41-2.75-9.43-4.21-18-3.25-23.86,3.79-23.28,32.88-37.23,49.33-39.56s55.64,20.95,70.82,18.62,56.9-24.43,69.55-21,48,33.75,50.58,52.37A21.82,21.82,0,0,1,989.45,196Z"/><path class="cls-9" d="M824.67,330.86c3.84,1.79,3-47.93,19.77-60.51s46.72-10.18,50.92,7.19.6,73.68,10.18,65.3.6-59.31,15.58-76.08,42.53-24.57,40.73-53.92-15.57-64.1-37.14-53.32-34.15,30.55-65.3,21-52.12-29.36-67.09-13.18-23.37,50.32-4.8,68.89S815.68,326.66,824.67,330.86Z"/><path class="cls-10" d="M2385.86,1133.67l7.93.09v-29.4h40.58V2226.47h-40.58V1174.52c-2.47,0-5.12-.07-7.93-.09-38.92-.47-109.08-1.26-148.84-1.66-14.77-.15-25.34-.24-28.54-.24v-40.75C2220.62,1131.78,2332.13,1133.06,2385.86,1133.67Z"/><rect class="cls-10" x="2385.86" y="1129.74" width="55.39" height="55.66"/><path class="cls-11" d="M2237,1162.62v10.15c39.76.4,109.92,1.19,148.84,1.66v11h7.93v238.81l19.76-5.7c-.31-6.31-.05-188.6,0-228.08v-5h-7.8v-30.93h-19.89v8.15Z"/><rect class="cls-12" x="1740.02" y="1120.93" width="544.76" height="93.15" transform="translate(4024.79 2335) rotate(180)"/><rect class="cls-13" x="1740.02" y="1120.93" width="331.15" height="93.15" transform="translate(3811.18 2335) rotate(180)"/><rect class="cls-12" x="1740.02" y="1144.21" width="331.15" height="11.64" transform="translate(3811.18 2300.07) rotate(180)"/><rect class="cls-10" x="1712.43" y="1120.93" width="596.53" height="23.04" transform="translate(4021.39 2264.89) rotate(180)"/><path class="cls-10" d="M2125.31,1178.35h169.36a1.4,1.4,0,0,0,1.4-1.4v-47.49h-2.8v46.09H2126.71v-54.62h-2.8v56A1.4,1.4,0,0,0,2125.31,1178.35Z"/><rect class="cls-14" x="2393.79" y="1185.4" width="40.58" height="5.03"/><rect class="cls-15" x="1808.24" y="1105.11" width="334.31" height="14.85" transform="translate(3950.8 2225.07) rotate(180)"/><polygon class="cls-10" points="2163.45 1119.81 2234.82 1119.81 2240.9 1017.71 2157.37 1017.71 2163.45 1119.81"/><polygon class="cls-16" points="2232.48 1074.79 2230.1 1114.79 2168.18 1114.79 2165.8 1074.79 2232.48 1074.79"/><polygon class="cls-17" points="2207.15 1114.79 2224.37 1114.79 2229.17 1025.9 2211.95 1025.9 2207.15 1114.79"/><rect class="cls-10" x="2041.26" y="1055.8" width="49.63" height="49.63" transform="translate(4132.14 2161.23) rotate(180)"/><polygon class="cls-12" points="2570.29 1616.21 2552.54 1493.04 2273.32 1493.04 2250.61 2329.09 2669.77 2329.09 2669.77 1616.21 2570.29 1616.21"/><polygon class="cls-13" points="2454.74 2329.09 2168.68 2329.09 2263.88 1493.04 2493.49 1493.04 2454.74 2329.09"/><rect class="cls-18" x="2126.38" y="2311.4" width="597.41" height="70.79"/><polygon class="cls-12" points="2450.28 1772.44 2274.83 1772.44 2282.31 1707.43 2452.77 1707.43 2450.28 1772.44"/><polygon class="cls-12" points="2446.56 1869.49 2263.68 1869.49 2271.79 1798.93 2449.26 1798.93 2446.56 1869.49"/><polygon class="cls-12" points="2442.51 1975.12 2251.53 1975.12 2260.37 1898.28 2445.46 1898.28 2442.51 1975.12"/><polygon class="cls-12" points="2438.09 2090.55 2238.26 2090.55 2247.92 2006.54 2441.31 2006.54 2438.09 2090.55"/><polygon class="cls-12" points="2433.24 2217.18 2223.71 2217.18 2234.31 2124.96 2436.77 2124.96 2433.24 2217.18"/><rect class="cls-19" x="1785.5" y="1200.8" width="16.47" height="9.88"/><polygon class="cls-20" points="1801.04 1125.51 1799.56 1123.37 1819.77 1109.5 1836.92 1109.5 1836.92 1112.1 1820.58 1112.1 1801.04 1125.51"/><rect class="cls-20" x="1778.18" y="1117.58" width="30.3" height="87.28" rx="4.74"/><rect class="cls-21" x="1771.49" y="1138.2" width="43.41" height="19.77"/><rect class="cls-19" x="1851.4" y="1200.8" width="16.47" height="9.88"/><polygon class="cls-20" points="1866.93 1125.51 1865.45 1123.37 1885.66 1109.5 1902.82 1109.5 1902.82 1112.1 1886.47 1112.1 1866.93 1125.51"/><rect class="cls-20" x="1844.08" y="1117.58" width="30.3" height="87.28" rx="4.74"/><rect class="cls-21" x="1837.38" y="1138.2" width="43.41" height="19.77"/><rect class="cls-19" x="1920.04" y="1200.8" width="16.47" height="9.88"/><polygon class="cls-20" points="1935.57 1125.51 1934.1 1123.37 1954.3 1109.5 1971.46 1109.5 1971.46 1112.1 1955.11 1112.1 1935.57 1125.51"/><rect class="cls-20" x="1912.72" y="1117.58" width="30.3" height="87.28" rx="4.74"/><rect class="cls-21" x="1906.02" y="1138.2" width="43.41" height="19.77"/><path class="cls-19" d="M1652.83,1505.68q-20.34,0-43.15-6.91l1.7-5.59c39.82,12.08,73.77,7.65,100.9-13.15,84.37-64.71,78.85-267.26,78.79-269.3l5.84-.19a683.7,683.7,0,0,1-7.54,111.5c-12.27,79.9-37,134.62-73.53,162.62C1697.58,1498.66,1676.49,1505.68,1652.83,1505.68Z"/><path class="cls-19" d="M1718.68,1505.68q-20.34,0-43.15-6.91l1.7-5.59c39.82,12.08,73.76,7.65,100.89-13.15,84.38-64.71,78.86-267.26,78.79-269.3l5.85-.19a685,685,0,0,1-7.54,111.5c-12.28,79.9-37,134.62-73.53,162.62C1763.43,1498.66,1742.34,1505.68,1718.68,1505.68Z"/><path class="cls-19" d="M1786.93,1505.68q-20.33,0-43.15-6.91l1.7-5.59c39.82,12.08,73.77,7.65,100.9-13.15,84.37-64.71,78.85-267.26,78.79-269.3l5.84-.19a684.31,684.31,0,0,1-7.53,111.5c-12.28,79.9-37,134.62-73.54,162.62C1831.69,1498.66,1810.59,1505.68,1786.93,1505.68Z"/><path class="cls-10" d="M2635.22,1334.35h-369a12.56,12.56,0,0,1-12.56-12.56h0a12.56,12.56,0,0,1,12.56-12.56h369a12.57,12.57,0,0,1,12.56,12.56h0A12.56,12.56,0,0,1,2635.22,1334.35Z"/><polygon class="cls-12" points="2606.01 1396.64 2295.37 1396.64 2270.09 1333.94 2631.29 1333.94 2606.01 1396.64"/><polygon class="cls-10" points="2503.5 1311.22 2574.88 1311.22 2580.95 1209.12 2497.43 1209.12 2503.5 1311.22"/><polygon class="cls-16" points="2572.53 1266.2 2570.15 1306.2 2508.23 1306.2 2505.85 1266.2 2572.53 1266.2"/><polygon class="cls-17" points="2547.2 1306.2 2564.42 1306.2 2569.22 1217.32 2552 1217.32 2547.2 1306.2"/><path class="cls-22" d="M1883.87,409.8l151,95.55,80.1-126.6a89.34,89.34,0,0,0-27.72-123.28h0A89.35,89.35,0,0,0,1964,283.2Z"/><path class="cls-22" d="M1605.77,215.84c27.49-39.09,208,29.49,404.91,154.1s336.2,258.35,312.64,299.93l.19.12-20.45,32.32-34.71-21.95c-73.33-11.56-207.77-72.52-350.89-163.09S1661.67,331.32,1619.83,270l-34.54-21.85,20.45-32.33Z"/><ellipse class="cls-23" cx="1944.09" cy="475.18" rx="87.17" ry="424.59" transform="translate(503.04 1863.94) rotate(-57.68)"/><ellipse class="cls-24" cx="1943.03" cy="482.84" rx="74.15" ry="401.42" transform="translate(496.07 1866.6) rotate(-57.68)"/><ellipse class="cls-10" cx="1956.2" cy="446.06" rx="16.07" ry="89.45" transform="translate(533.28 1860.62) rotate(-57.68)"/><ellipse class="cls-10" cx="1911.83" cy="516.18" rx="16.07" ry="89.45" transform="translate(453.38 1855.75) rotate(-57.68)"/><ellipse class="cls-10" cx="1738.86" cy="357.63" rx="16.07" ry="89.45" transform="translate(506.88 1635.82) rotate(-57.68)"/><path class="cls-10" d="M1928.84,489.29c25.14,15.91,47.82,25.14,50.68,20.62s-15.2-21.07-40.33-37-47.82-25.13-50.68-20.62S1903.71,473.39,1928.84,489.29Z"/><path class="cls-13" d="M2088,538.64c17.29,11,32.9,17.3,34.87,14.19s-10.46-14.49-27.75-25.44-32.9-17.29-34.87-14.18S2070.71,527.7,2088,538.64Z"/><path class="cls-13" d="M1832.85,377.5c17.62,11.15,33.53,17.62,35.54,14.45s-10.66-14.77-28.28-25.92-33.53-17.62-35.53-14.45S1815.23,366.35,1832.85,377.5Z"/><path class="cls-13" d="M1830.27,451.86c12.3,7.78,23.41,12.3,24.8,10.09s-7.43-10.31-19.73-18.1-23.41-12.29-24.8-10.09S1818,444.07,1830.27,451.86Z"/><path class="cls-13" d="M2033.2,592.92c12.3,7.78,23.41,12.3,24.8,10.09s-7.43-10.31-19.73-18.09-23.41-12.3-24.8-10.09S2020.9,585.14,2033.2,592.92Z"/><ellipse class="cls-10" cx="2129.17" cy="604.6" rx="16.07" ry="89.45" transform="translate(479.79 2080.56) rotate(-57.68)"/><path class="cls-1" d="M2029.36,303.42h0a30.18,30.18,0,0,0,31.5,28.8l287.68-12.89a30.17,30.17,0,0,0,28.8-31.49h0a30.18,30.18,0,0,0-31.5-28.8l-287.68,12.89A30.17,30.17,0,0,0,2029.36,303.42Z"/><path class="cls-1" d="M2341.34,316.49h0c15.72,5.52,30.53,4.14,33.07-3.1L2459,130c2.55-7.24-8.13-17.59-23.86-23.12h0c-15.72-5.53-30.53-4.14-33.07,3.1l-84.58,183.4C2314.93,300.61,2325.62,311,2341.34,316.49Z"/><circle class="cls-23" cx="2351.94" cy="287.12" r="46.11"/><circle class="cls-23" cx="2061.73" cy="301.13" r="42.1"/><circle class="cls-1" cx="2351.94" cy="287.12" r="21.3"/><circle class="cls-1" cx="2061.43" cy="301.65" r="20.52" transform="translate(-14.16 481.69) rotate(-13.28)"/><path class="cls-25" d="M831.12,760.78s-17.22-67.72-36.73-82.64-55.1,42.47-45.92,48.21,17.22,4.59,17.22,4.59-5.74,48.21,24.1,59.69S831.12,773.41,831.12,760.78Z"/><path class="cls-10" d="M1724.26,1492H1156.84a43.24,43.24,0,0,1-43.23-43.23h0a43.23,43.23,0,0,1,43.23-43.23h567.42a43.23,43.23,0,0,1,43.23,43.23h0A43.24,43.24,0,0,1,1724.26,1492Z"/><path class="cls-25" d="M1238.28,1492.59c33.49,33.44,109.14,56.77,197.12,56.77S1599,1526,1632.53,1492.59Z"/><path class="cls-23" d="M1728.88,2384.92c-50.46-42.2-164.44-71.64-297-71.64s-246.54,29.44-297,71.64Z"/><rect class="cls-25" x="1380.93" y="1533.11" width="84.35" height="138.14"/><path class="cls-26" d="M1322.94,522.88s39.53-29,71.9-3.1,32.1,48.23,32.1,48.23,63.43-33.88,97.69,10.31,19.27,70.51,19.27,70.51,44.79-12.74,74.55,21.6-7.06,82.23-7.06,82.23,42.36,17.75,2.85,78.15-132.47,39.53-132.47,39.53,13.81,57.86-62,62.62-109.2-57.16-109.2-57.16c-21.9-23.91-45-47.59-8.19-82.17-49-31.25-48.23-54.43-7.09-71.08,0,0-44.39,27-63.29-26.09s65-89.16,65-89.16-54.23-36.49-30.31-66.29S1322.94,522.88,1322.94,522.88Z"/><path class="cls-10" d="M1126.26,812.81l-128,124.11L829.42,746.34l-54.24,92.41s124.18,198.36,164.56,244.4c58.69,66.9,337-180.3,345.87-233C1299.22,769.06,1167.81,732.91,1126.26,812.81Z"/><path class="cls-27" d="M1565.77,1507.37c-27.59-285.94-112.66-369.7-112.66-369.7H1205.29c-47.09,141-61.82,266.17-63.47,369.7Z"/><path class="cls-28" d="M1156.55,1299.2c45,13,166-1.59,267.93-34.59l89.86-53.24s-86.73-125.94-84-141.63c7.83-41.37,24-106.45,31.06-168q1.18-10,2-19.82c3.94-45.94,1.75-88.26-14-115.44-35.91-65.62-264.79-33.38-289.57,7.66-24.75,41.24-42.06,90.55-45.55,125.42-1,10.37,4.5,37,13,69.08s19.65,69.91,29.65,103C1170.92,1117.1,1156.55,1299.2,1156.55,1299.2Z"/><path class="cls-10" d="M1157.7,1057.13c11.79,72.95-2.31,699.36-2.31,699.36-36.65-15.49-89-54.61-84.14-126.3,0,0,64.94-455.91,57.8-523.2s-64.85-238.08,36.34-348.12c27.1-21.85,62.28-28.32,62.28-28.32s36-11.11,37-3.46C1240.57,749.56,1134,842.62,1157.7,1057.13Z"/><path class="cls-29" d="M1191.68,603.48l28.67,99.18,15.07,52.11a20.14,20.14,0,0,0,2.64,3.51c17.2,18.77,82.18,34.52,114.56,8.42,11.2-9.06,9.52-29.79,2.59-53-11.13-37.3-35.81-81-42.12-92.66-8.5-15.62-15.38-28.55-18.07-34.52C1270.9,590.43,1216.21,599.51,1191.68,603.48Z"/><path class="cls-30" d="M1220.35,702.66l15.07,52.11a20.14,20.14,0,0,0,2.64,3.51c6.34-2,14.9-7.55,25.28-21.39,22.63-30.17.23-106.73.23-106.73Z"/><path class="cls-29" d="M1076.49,591.93c7,81,69.83,153.61,110.66,151.87,66.49-2.82,136.46-91.73,129.44-172.69s-66.46-141.94-132.76-136.2S1069.47,511,1076.49,591.93Z"/><path class="cls-26" d="M1096.81,483.51s146.73,64.59,237.63,163.61c10.6-23.08-1.52-35.92,3.63-56,19.78-77.1,0-133.55-60.21-166.61C1209.92,387.24,1128.18,420.8,1096.81,483.51Z"/><path class="cls-26" d="M1115.48,490.84s-36,33.57-39.56,96.9c-12.93-62.69,9.85-191,150.16-178.49S1115.48,490.84,1115.48,490.84Z"/><circle class="cls-29" cx="1277.68" cy="589.74" r="28.47" transform="translate(231.52 1530.91) rotate(-66.75)"/><path class="cls-30" d="M1281.42,612.46a2,2,0,0,0,.51-.25,2.11,2.11,0,0,0,.6-2.94c-4.53-6.84-6.12-13.12-4.7-18.66,1.94-7.6,9-11.41,9.06-11.45a2.12,2.12,0,0,0-2-3.76c-.36.19-8.76,4.66-11.2,14.1-1.75,6.77,0,14.21,5.26,22.12A2.12,2.12,0,0,0,1281.42,612.46Z"/><path class="cls-30" d="M1144.93,665.3a24.91,24.91,0,0,0,6.52-3.26,2.1,2.1,0,1,0-2.49-3.39c-.4.28-9.72,7-17.54,1.08A3.34,3.34,0,0,1,1130,657c-.23-6.07,10-16.42,14-19.9a2.1,2.1,0,1,0-2.78-3.16c-1.61,1.41-15.74,14.08-15.4,23.22a7.56,7.56,0,0,0,3.11,5.93C1134.5,667.32,1140.52,666.76,1144.93,665.3Z"/><path class="cls-31" d="M1179.67,614c-12.72,4-28,6.26-33.63,2.48h0c-6.82-4.61-14.71-20.56-10.85-30.06,4.06-10,30.35-25.32,55.63-20,3.24.68,6.32,3.45,8.67,7.8,4.38,8.12,5.2,19.53,2,27.75a10.16,10.16,0,0,1-3.73,4C1193.42,609.08,1186.24,612,1179.67,614ZM1136.42,587c-3.53,8.68,3.89,24.09,10.36,28.46,5.2,3.51,20.49,1.09,32.49-2.65,11.29-3.51,19.71-8,21-11.25,3.6-9.21,1.53-20.26-1.92-26.63-2.16-4-4.92-6.54-7.78-7.14-17.17-3.61-35.29,2.84-45.73,10.24C1140.53,581,1137.53,584.23,1136.42,587Z"/><path class="cls-31" d="M1090.9,634.86c-3.88.75-13.22,2.21-16.35-.41-5.12-4.31-8.86-12.08-9.51-19.81-.41-4.84.46-8.81,2.45-11.16,11.33-13.34,38.74-15.74,45.11-10.54,6.71,5.47,8.41,23.44,5.25,29.37h0a12.14,12.14,0,0,1-3.8,3.88C1108.71,630,1099.34,633.22,1090.9,634.86Zm25.77-13.17c2.84-5.33,1.13-22.8-4.91-27.72s-32.58-2.21-43.25,10.37c-1.74,2-2.53,5.77-2.15,10.19.63,7.39,4.18,14.81,9.05,18.9,1.83,1.54,7.67,1.58,15.23.12,10.65-2.06,23.4-6.92,26-11.86Z"/><path class="cls-32" d="M1254.59,572.72a2.1,2.1,0,0,0-1-4.07l-49.44,8.5c-3.62-10-14.64-14.88-30-13.24-18.54,2-39.47,13.47-41.34,27.1a145.73,145.73,0,0,1-15,4.4c-7.4-8.34-23-7.49-35.64-2.77s-20.23,12.36-19.64,19.58a2.11,2.11,0,0,0,4.2-.34c-.42-5.13,6.54-11.42,16.91-15.29,11.29-4.21,26-5.27,31.65,2.39a2.11,2.11,0,0,0,2.11.82,145.32,145.32,0,0,0,18.15-5.3,2.11,2.11,0,0,0,1.36-1.89c.44-11.76,20.27-22.64,37.71-24.51,6.71-.72,22.68-1,26,12a2.11,2.11,0,0,0,2.4,1.55l51.27-8.81Z"/><path class="cls-26" d="M1173.41,595.23c2.27,5.35,6.57,8.65,9.61,7.36s3.67-6.67,1.4-12-6.57-8.65-9.61-7.36S1171.14,589.88,1173.41,595.23Z"/><path class="cls-26" d="M1095.55,614.6c2.26,5.35,6.56,8.64,9.6,7.35s3.67-6.67,1.41-12-6.57-8.64-9.61-7.35S1093.28,609.25,1095.55,614.6Z"/><path class="cls-10" d="M1105.45,682.32s18.41-50,34.19-53.13,109.95-15.51,109.95-15.51,12.53,28.06,42.09,10c4.21,42.08-47.87,123.31-88.92,123.31C1132.27,747,1105.45,682.32,1105.45,682.32Z"/><path class="cls-10" d="M1269.68,644.25a17.66,17.66,0,0,1-4.4-.57c-8.35-2.17-16-10.29-19.11-20.22-4.23-13.61-5.83-45,4.31-53.32a2.54,2.54,0,1,1,3.23,3.91c-6.94,5.72-7.42,32.69-2.7,47.9,2.54,8.19,8.93,15.1,15.54,16.82,4.35,1.12,8.34,0,11.85-3.37,11.1-10.61,20-26.78,20.07-26.94a2.54,2.54,0,0,1,4.46,2.43c-.38.69-9.35,17-21,28.18A17.56,17.56,0,0,1,1269.68,644.25Z"/><path class="cls-27" d="M1175.16,1328.21s-169.82,132.61-196.69,197.55,15.29,147.32,73.52,167.48,300.44,18.91,356.43-28.12,149.67-182.39,147.43-263S1318.48,1294.62,1175.16,1328.21Z"/><path class="cls-33" d="M972.78,1576.39l-84,657.76L963,2246.06l179.44-635.72C1136.2,1469.4,978.75,1491.25,972.78,1576.39Z"/><path class="cls-34" d="M803.11,2383.8c-.43-15.6,53.26-54.84,53.26-54.84l30.87-98.91,79.32-12,29.84,51.54L889.71,2372Z"/><polygon class="cls-34" points="977.97 2338.27 907.45 2265.01 996.46 2269.26 997.12 2357.25 977.97 2338.27"/><path class="cls-33" d="M1162.58,1576.65l221.68,624.95,71.67-22.87-126.6-648.32C1260.17,1407.45,1129.51,1498,1162.58,1576.65Z"/><path class="cls-34" d="M1309.15,2331.84c-2.52-15.4,45.42-61.48,45.42-61.48l17.33-102.16,77-22.5,36.48,47.08-92,115.71Z"/><polygon class="cls-34" points="1486.91 2282.55 1424.9 2201.97 1485.39 2192.42 1497.85 2279.52 1486.91 2282.55"/><path class="cls-10" d="M1666.2,1566.73s-55.08,95.92-338.57,135h-8.88s-.81-216.89,2.13-407.87c1.12-72.75-14.16-382.42,37.82-533.18,11.51-22.79-2.18-31.48-1.29-39.78,50,2.56,71.55,11,108.73,39.44,51.31,44.66,44,305.58,44,305.58Z"/><path class="cls-35" d="M1454.71,930.32s-3.57,288.21-127.08,379.23c1.11-72.75,2.79-141.72,5.24-193.52C1402.09,1077.24,1454.71,930.32,1454.71,930.32Z"/><polygon class="cls-25" points="1071.97 1036.88 1005.8 1012.92 1000.98 1048.39 1053.7 1084.27 1071.97 1036.88"/><polygon class="cls-36" points="988.57 1006.07 885.24 939.74 886.41 940.08 850.71 938.21 850.72 937.19 886.43 935.7 887.03 935.67 887.61 936.04 990.94 1002.38 988.57 1006.07"/><path class="cls-25" d="M1016,1017.84s-70-52.12-76.92-47.9,14.89,25.49,14.89,25.49-10.68-5.11-13.61.34c-3.69,6.86,8.48,13.42,8.48,13.42s-8.21,2-8.48,6.58,8.25,12.42,8.25,12.42-11.39,2.73-9.56,8.45,8.85,22.12,45,29.67S1042.52,1035.6,1016,1017.84Z"/><path class="cls-25" d="M1025.78,1027.93s-12.8-28.9-21.46-35.09S968,978,968,978s-5.36,3.3,1.65,12.38,27.66,18.17,27.66,18.17S1015.87,1038.66,1025.78,1027.93Z"/><path class="cls-10" d="M1321.66,875.28l-78.39,197.2-209.49-52-14.48,114.08s219,89.39,279.52,80.09S1490.65,922.16,1485.2,869C1476.81,787.21,1340.53,787.21,1321.66,875.28Z"/><path class="cls-36" d="M803.91,709.88,698,647.72a8.25,8.25,0,0,0-11.21,3l-4.85,8.4-2.53-1.46,4.84-8.4a11.19,11.19,0,0,1,15.22-4.11l105.91,62.16Z"/><path class="cls-36" d="M686.47,650.39c3,1.83,1.27,10.09-3.86,18.43s-11.69,13.63-14.69,11.79-1.26-10.09,3.86-18.44S683.48,648.55,686.47,650.39Z"/><path class="cls-10" d="M683.56,655.12c1.69,1,.21,6.52-3.3,12.26s-7.74,9.53-9.43,8.49-.21-6.52,3.31-12.25S681.87,654.08,683.56,655.12Z"/><path class="cls-25" d="M783.88,683.41c-1.33.89-13.27,5.31-8,18.14S791.84,717,791.84,717s-13.27,27.87-6.63,38.48l38-15.92C816.18,714.38,785.21,682.53,783.88,683.41Z"/><path class="cls-36" d="M1005.81,1009.71a.72.72,0,0,1-.4-.12L965,983.17a.73.73,0,0,1,.8-1.23l40.4,26.43a.73.73,0,0,1-.4,1.34Z"/><path class="cls-36" d="M784.59,755.91c-6.23-10,4.1-33.75,6.24-38.42-2.68-.93-11-4.6-15.59-15.66-3.33-8.06-.78-14.35,7.6-18.68a7.13,7.13,0,0,0,.64-.35.94.94,0,0,1,.87-.06C788.1,684.13,817.1,715,824,739.4l-1.41.39c-6.65-23.7-35-53.72-38.54-55.6l-.49.26c-2.83,1.46-11.44,5.91-6.93,16.82,5.1,12.31,15.33,15,15.43,15.06l.87.21-.39.81c-.13.27-13,27.63-6.67,37.79Z"/><rect class="cls-23" x="666.95" y="1288.04" width="18.76" height="121.2" transform="translate(-829.8 1260.04) rotate(-60)"/><path class="cls-37" d="M2434,1680s56.23,37,78.72,41.77,112.46-24.1,125.31-9.64-93.18,91.58-122.09,96.4-143-70.69-143-70.69Z"/><path class="cls-19" d="M1464.12,1358.52s451.18-80.47,532.06-41.79S2434,1680,2434,1680l-33.49,65.68s-471.16-225-499.29-228.55S1409,1693,1338.66,1654.27,1385.64,1365.16,1464.12,1358.52Z"/><path class="cls-23" d="M1318.87,1974.64c-77,0-139.71-62.68-139.71-139.71s62.67-139.71,139.71-139.71,139.7,62.68,139.7,139.71S1395.9,1974.64,1318.87,1974.64Zm0-262.08a122.37,122.37,0,1,0,122.37,122.37A122.51,122.51,0,0,0,1318.87,1712.56Z"/><path class="cls-23" d="M1397.38,1716.09l-75.33,123.07a38.24,38.24,0,0,0,13.48,53.07l318.16,183.94a38.25,38.25,0,0,0,50.48-11.19l98-140.11Z"/><path class="cls-1" d="M2430.08,1880.09l-45.17,14-492.6,152.56a339,339,0,0,1-238.78-55.35L1286,1768.93l-57.09-34.53L1212,1724.15l10.54-2,469.24-90c96.93-15.7,251.82-26.17,356,27.88Z"/><path class="cls-23" d="M2430.08,1875.9l-45.17,14c-124.81-67.68-426.53-229.46-467.24-234.26-51.5-6.05-602.82,115.12-602.82,115.12l-28.83-6-57.09-34.53-6.38-12.27,469.24-90c96.93-15.71,251.82-26.18,356,27.87Z"/><path class="cls-10" d="M2651.67,1887.5l-600.93-331.73c-51.51-28.43-118.73-26.33-177.16-19.46l-552.64,94.75c-44.55,5.24-71-15.24-110.11-37.26L757.42,1338.24a51.77,51.77,0,0,0-66.71,13.43h0a51.77,51.77,0,0,0,15.92,76.79l500.82,271.79a211.66,211.66,0,0,0,128,23.91l524.69-90.2c59.13-7.6,123.88-10.44,176.16,18.21l572.31,313.71a44.72,44.72,0,0,0,60.43-17.21h0A44.73,44.73,0,0,0,2651.67,1887.5Z"/><path class="cls-10" d="M656.41,1336.17h0a50.42,50.42,0,0,1-69.61,14.53L426.27,1245.6A50.44,50.44,0,0,1,411.74,1176h0a50.43,50.43,0,0,1,69.61-14.53l160.54,105.1A50.43,50.43,0,0,1,656.41,1336.17Z"/><path class="cls-38" d="M1373.85,1619.3c32.41-47.41,78-126.87,90.27-260.78-41.9-3.82-142.12,13.51-184.93-15.12s-136.27-132.51-170.28-145.35-69.55-23.61-154-9.92c-61.58,10-94.17,9.12-143.24,72.6-78,100.91,54.58,143.28,161.75,200.73,32.15,11.49,179.84,96.13,294.68,162.81C1305.79,1636.09,1338.85,1631,1373.85,1619.3Z"/><path class="cls-37" d="M920.05,1215.56c17.94,11.57-65.31,100.23-117,96.91l-57.44-57.1L808.49,1158l73,37.69Z"/><path class="cls-37" d="M714.16,1003.89c96.14,36.78,142.69,118.78,134.94,191.1-30.86,71.89-147.92,99.88-240.81,55.52-87.52-41.8-132.34-126.33-104.6-190.94S623.58,969.23,714.16,1003.89Z"/><path class="cls-37" d="M984,1325.4l163.22,109.84,374.4-1.83-9.71,53.39s-331.38,42.51-379.31,48.89S884.47,1415,884.47,1415C818.73,1371.24,870.93,1286.18,984,1325.4Z"/><path class="cls-23" d="M1726.48,2026h0a18.8,18.8,0,0,1-25.69,6.88L663.72,1423.25a18.81,18.81,0,0,1-6.88-25.69h0a18.8,18.8,0,0,1,25.69-6.88L1719.6,2000.29A18.82,18.82,0,0,1,1726.48,2026Z"/><path class="cls-23" d="M629.77,1381.7a18.6,18.6,0,0,0-5.77-25.84l-220.54-138A18.79,18.79,0,0,0,377.6,1224h0a18.79,18.79,0,0,0,6.16,25.87L604,1387.73a18.6,18.6,0,0,0,25.53-5.71Z"/><path class="cls-39" d="M1658.13,1483.72l-62.1,81L1228.77,1631c-102.59,17.1-119.57-20.25-127.46-80h0S1659.9,1481.4,1658.13,1483.72Z"/><path class="cls-10" d="M1663.36,1499.66l-566.23,74.79a17.53,17.53,0,0,1-19.67-15.09h0a17.53,17.53,0,0,1,15.08-19.67l566.23-74.78a17.54,17.54,0,0,1,19.67,15.08h0A17.53,17.53,0,0,1,1663.36,1499.66Z"/><circle class="cls-1" cx="1167.22" cy="1599.07" r="12.54"/><path class="cls-23" d="M2187.33,2294.19l-196-459a132.39,132.39,0,0,0-137.48-48.27h0c-93,23.24-131.22,134.48-72.21,210l126.71,297.27Z"/><circle class="cls-1" cx="1882.4" cy="1914.84" r="43.74"/><polygon class="cls-1" points="1729.46 2308.66 2178.34 2147.06 2273.25 2311.22 1729.46 2308.66"/><circle class="cls-23" cx="2142.72" cy="2245.09" r="24.65"/><path class="cls-37" d="M1520.28,1431.27s114.82,1.64,136.14,26.24-133.68,32-150.91,23.79S1491.57,1441.11,1520.28,1431.27Z"/><path class="cls-26" d="M667,984.93s51.3-1.14,88.92,83.22c14.12,31.65,16.71,109,35.14,134.94,26.06,36.68,66.46,36.69,90.71,50.54,41.39,23.66-14.25,123.11,57,197-91.66-17.74-321.5-173.28-373.24-220.59s-107.16-114-52.44-200.63C558.69,978.09,619.3,976.09,667,984.93Z"/><path class="cls-23" d="M1390.27,2285.63h976a49.67,49.67,0,0,1,49.67,49.67v47.17a0,0,0,0,1,0,0H1340.6a0,0,0,0,1,0,0V2335.3A49.67,49.67,0,0,1,1390.27,2285.63Z"/></g></svg>