<svg xmlns="http://www.w3.org/2000/svg" xmlns:xlink="http://www.w3.org/1999/xlink" viewBox="0 0 3492.82 2316.13"><defs><style>.cls-1{fill:none;}.cls-2{fill:#d9f1ff;}.cls-3{fill:#b8e5ff;}.cls-4{clip-path:url(#clip-path);}.cls-17,.cls-5{fill:#fff;}.cls-6{fill:#f2faff;}.cls-7{fill:#6bb2e3;}.cls-8{fill:#425899;}.cls-9{fill:#a3cfff;}.cls-10{fill:#a1d3ff;}.cls-11{fill:#e6f6ff;}.cls-12{fill:#d4efff;}.cls-13{fill:#a3ddff;}.cls-14{fill:#4ba8d6;}.cls-15{fill:#8cd6ff;}.cls-16{fill:#c4e8ff;}.cls-17{opacity:0.3;}.cls-18{fill:#94dbff;}.cls-19{fill:#c2ebff;}.cls-20{fill:#69c6f5;}.cls-21{fill:#30596e;}.cls-22{fill:#6bbfed;}.cls-23{fill:#ccedff;}.cls-24{fill:#40a0d6;}.cls-25{fill:#0e0e0e;}.cls-26{fill:#231f20;}.cls-27{fill:#9eddae;}.cls-28{fill:#e67a5c;}.cls-29{fill:#c2674e;}.cls-30{fill:#f0f0f0;}.cls-31{fill:#282828;}.cls-32{fill:#ff9c80;}.cls-33{fill:#0d0d0d;}.cls-34{fill:#d9f2ff;}.cls-35{fill:#3a312f;}.cls-36{fill:#ffa599;}.cls-37{fill:#6bc3f0;}.cls-38{fill:#fd5655;}.cls-39{fill:#65bbe6;}</style><clipPath id="clip-path"><rect class="cls-1" x="2361.08" y="688.16" width="715.08" height="690.54"/></clipPath></defs><g id="patient"><path class="cls-2" d="M0,2308.74c424.78-195.15,194.47-552,86.2-1205.85C-231.67,186.83,702.68-359.94,1482.9,273,2154.51,742,2642,106,3196.43,697.63c375.58,400.78,63.12,853,53.89,1181.15-7.28,258.7,242.5,430,242.5,430Z"/><g id="window"><rect class="cls-3" x="2336.43" y="660.87" width="762.86" height="740.45"/><g class="cls-4"><rect class="cls-5" x="2361.08" y="688.16" width="715.08" height="690.54"/><path class="cls-6" d="M3134.49,1442.14V1045.93c-.13,0-.26,0-.4,0a3.1,3.1,0,0,0-3.61,3v29.05c-13.35,2.44-11.44,15.71-11.37,26.6-20.85,7.21-19.51,26.92-19,46h-16.28v58.37c-14.89,6.68-24.47,16-24.47,28v97.2h-18.88V948.29h-15.76V911.38h-90.34v36.91h-15.95v318.62h-16V1091l-53.11-31.34v-52.17h-37.07v0h-7v0h-.06v28.37c-.19.17-.72.54-.94.69v.06L2770,1073.17v251.55a17.89,17.89,0,0,0-7.95,3.19c-3.11,2.08-4.26,4.39-6.3,6.23h-8.28v-104.3h-25.91V969.37l-87.48,89.13v171.34h-20.51v-.28h-9.67V1050.68H2539v283.46h-.08V1103.06H2465v96.53h-63.63v74.63l-3.24-2.15h-20.58v-75h-28.87v-19.71H2303v264.8Z"/></g><rect class="cls-3" x="2695.09" y="672.94" width="23.53" height="728.38"/><rect class="cls-3" x="2706.1" y="659.06" width="23.53" height="756.13" transform="translate(3755 -1680.73) rotate(90)"/></g><g id="plant"><path class="cls-7" d="M2816.43,2230.08h0a104.32,104.32,0,0,0,104.32-104.31V1983.55H2712.11v142.22A104.32,104.32,0,0,0,2816.43,2230.08Z"/><rect class="cls-8" x="2920.75" y="2091.03" width="11.56" height="220.73" transform="translate(5853.05 4402.79) rotate(180)"/><rect class="cls-8" x="2700.55" y="2091.03" width="11.56" height="220.73" transform="translate(5412.66 4402.79) rotate(180)"/><rect class="cls-8" x="2789.03" y="2091.03" width="11.56" height="220.73" transform="translate(5589.62 4402.79) rotate(180)"/><rect class="cls-8" x="2816.16" y="2125.5" width="11.56" height="220.73" transform="translate(5057.8 -586.08) rotate(90)"/><path class="cls-9" d="M2781.72,1714.92c19.49,10.37,4.09,35.86,12.08,60s40,23.57,27.94,66.8c-7.46,26.63-33.89,9.94-33.29,44.56s13.71,33.76,3.54,51.56c-17.73,31-78.18,13.67-78.66-21s28.53-46.43,4-62.54-34.31-23.44-18.18-46.48c20-28.52,50.9-27.66,42.25-49.92S2756,1701.2,2781.72,1714.92Z"/><path class="cls-8" d="M2771.42,1982.77l-5.07,1.46c-34.5-120.21-2.2-233.41-1.87-234.54l5.07,1.49C2769.22,1752.29,2737.37,1864.08,2771.42,1982.77Z"/><path class="cls-10" d="M3040.38,1689.69c14.38,25.82-21.43,43.29-30,76.26s29.82,42.43-15.19,82.25c-27.72,24.53-34.52,10.46-42.47,62.49-7,45.81-43.68,4.49-68,32.43-31.43,36.06-87.29-36.55-62.67-75.85s56.17-31.13,40.32-67-.68-64.38,34.18-78.58c43.15-17.58,60.89,18.48,67.31-12.84S3021.36,1655.55,3040.38,1689.69Z"/><path class="cls-8" d="M2834.32,1983.41c47.91-158.29,164.87-260.77,166-261.78l-4.63-5.36c-1.19,1-119.69,104.87-168.18,265.09Z"/></g><g id="plant-2" data-name="plant"><path class="cls-7" d="M652.15,2230.08h0a104.31,104.31,0,0,1-104.31-104.31V1983.55H756.47v142.22A104.31,104.31,0,0,1,652.15,2230.08Z"/><rect class="cls-8" x="536.28" y="2091.03" width="11.56" height="220.73"/><rect class="cls-8" x="756.47" y="2091.03" width="11.56" height="220.73"/><rect class="cls-8" x="667.99" y="2091.03" width="11.56" height="220.73"/><rect class="cls-8" x="640.86" y="2125.5" width="11.56" height="220.73" transform="translate(2882.5 1589.22) rotate(90)"/><path class="cls-9" d="M640.59,1714.92c-19.49,10.37-4.09,35.86-12.07,60s-40.06,23.57-27.94,66.8c7.46,26.63,33.88,9.94,33.28,44.56s-13.71,33.76-3.54,51.56c17.73,31,78.18,13.67,78.66-21s-28.52-46.43-4-62.54,34.3-23.44,18.17-46.48c-20-28.52-50.9-27.66-42.25-49.92S666.37,1701.2,640.59,1714.92Z"/><path class="cls-8" d="M650.89,1982.77l5.07,1.46c34.5-120.21,2.2-233.41,1.87-234.54l-5.07,1.49C653.09,1752.29,685,1864.08,650.89,1982.77Z"/><path class="cls-9" d="M858.74,1819.59c8,15.26-13.14,24.92-18.63,44s15.45,32.82-11.38,55.37c-16.53,13.88-26.22-8.51-41.07,14.07s-6,27.81-20.4,34.81c-25.09,12.2-56.43-25.59-41.49-48.14s38.82-17.38,30.11-38.55-11.8-30.21,8.74-38c25.42-9.6,45,4.57,49.2-13.59S848.16,1799.4,858.74,1819.59Z"/><path class="cls-8" d="M734.23,1987.75l-3.91-1.29c30.66-92.69,101.29-151.45,102-152l2.61,3.19C834.23,1838.19,764.5,1896.24,734.23,1987.75Z"/><path class="cls-10" d="M379.5,1694.56c-14.39,25.82,21.43,43.29,30,76.26s-29.83,42.44,15.18,82.25c27.72,24.53,34.53,10.46,42.47,62.49,7,45.81,43.68,4.49,68,32.43,31.44,36.06,87.3-36.55,62.68-75.85s-56.17-31.13-40.32-67,.67-64.38-34.19-78.58c-43.15-17.58-60.88,18.48-67.31-12.84S398.52,1660.42,379.5,1694.56Z"/><path class="cls-8" d="M585.55,1988.28c-47.9-158.29-164.87-260.77-166-261.78l4.62-5.35c1.19,1,119.7,104.86,168.19,265.08Z"/></g><rect class="cls-5" x="285.48" y="689.75" width="388.6" height="465.64"/><path class="cls-11" d="M598.16,872.91c-3.13,22.64-32.35,74.21-37.95,81.45-6.15,7.91-24.57,108.54-50.39,104-12.29-24.86-15.95-97.22-34.39-93.82s-27,95-34.4,93.82-36.86-33.9-46.7-116.44c0,0-18.49-34.64-26.33-61.61-2.67-9.16-4.09-17.44-3.15-23.18,3.68-22.61,31.95-36.17,47.92-38.43s54.06,20.35,68.81,18.08,55.28-23.73,67.57-20.35,46.68,32.79,49.14,50.88A21,21,0,0,1,598.16,872.91Z"/><path class="cls-12" d="M598.16,872.91c-3.13,22.64-32.35,74.21-37.95,81.45-6.15,7.91-24.57,108.54-50.39,104-12.29-24.86-15.95-97.22-34.39-93.82s-27,95-34.4,93.82-36.86-33.9-46.7-116.44c0,0-18.49-34.64-26.33-61.61,16.13,11,30.06,40.29,63.39,46.4,58.77,10.76,68.52-4.94,99.16-9.08s40.55-23.17,62.05-40.54C594.56,875.51,596.43,874.11,598.16,872.91Z"/><path class="cls-5" d="M416,830.42s-21.13,17.31-22.34,39.76,30.27,55.43,30.27,55.43,3.64,80.09,9.71,100.72c-17-32.15-23.06-95.26-23.06-95.26s-26.28-28.67-31.31-52.18C371.78,843.9,411.15,833.45,416,830.42Z"/><rect class="cls-12" x="403.99" y="737.98" width="157.83" height="16.57"/><rect class="cls-5" x="825.62" y="369.65" width="327.29" height="392.19"/><rect class="cls-12" x="925.44" y="410.27" width="132.94" height="13.95"/><rect class="cls-12" x="858.23" y="715.97" width="132.94" height="13.95"/><path class="cls-11" d="M1089,523.91c-2.64,19.07-27.25,62.5-32,68.6-5.19,6.66-20.7,91.42-42.45,87.6-10.34-20.94-13.43-81.89-29-79s-22.78,80-29,79-31-28.56-39.34-98.08c0,0-15.57-29.17-22.17-51.89-2.25-7.71-3.44-14.69-2.66-19.52,3.11-19.05,26.91-30.46,40.37-32.37s45.52,17.14,57.95,15.23,46.56-20,56.91-17.14S1087,504,1089.09,519.19A17.73,17.73,0,0,1,1089,523.91Z"/><path class="cls-13" d="M954.14,634.24c3.14,1.47,2.45-39.21,16.18-49.51s38.24-8.33,41.67,5.88.49,60.3,8.33,53.44.49-48.53,12.75-62.26,34.8-20.1,33.33-44.12S1053.65,485.22,1036,494s-27.94,25-53.44,17.16-42.64-24-54.9-10.78-19.12,41.17-3.92,56.37S946.79,630.81,954.14,634.24Z"/><g id="matchine-2" data-name="matchine"><path class="cls-5" d="M2231.63,1291.17l6.49.07v-24.06h33.2v918.19h-33.2V1324.59l-6.49-.08c-31.85-.37-89.26-1-121.79-1.35-12.09-.13-20.74-.2-23.36-.2v-33.35C2096.42,1289.61,2187.66,1290.66,2231.63,1291.17Z"/><rect class="cls-5" x="2231.63" y="1287.95" width="45.32" height="45.54"/><path class="cls-6" d="M2109.84,1314.85v8.31c32.53.33,89.94,1,121.79,1.35v9h6.49V1528.9l16.16-4.66c-.25-5.17,0-154.33,0-186.63v-4.12h-6.37v-25.31h-16.28v6.67Z"/><rect class="cls-14" x="1703.15" y="1280.74" width="445.76" height="76.22" transform="translate(3852.07 2637.69) rotate(180)"/><rect class="cls-15" x="1703.15" y="1280.74" width="270.97" height="76.22" transform="translate(3677.27 2637.69) rotate(180)"/><rect class="cls-14" x="1703.15" y="1299.79" width="270.97" height="9.53" transform="translate(3677.27 2609.11) rotate(180)"/><rect class="cls-5" x="1680.58" y="1280.74" width="488.12" height="18.85" transform="translate(3849.28 2580.32) rotate(180)"/><path class="cls-5" d="M2002.4,1333.11h154.48a1.28,1.28,0,0,0,1.28-1.27v-43.32h-2.56v42H2003.68v-49.82h-2.55v51.1A1.27,1.27,0,0,0,2002.4,1333.11Z"/><rect class="cls-16" x="2238.12" y="1333.49" width="33.2" height="4.12"/><rect class="cls-15" x="1758.98" y="1267.79" width="273.56" height="12.15" transform="translate(3791.52 2547.74) rotate(180)"/><polygon class="cls-5" points="2049.63 1279.82 2108.04 1279.82 2113.01 1196.28 2044.66 1196.28 2049.63 1279.82"/><polygon class="cls-15" points="2106.12 1242.98 2104.17 1275.72 2053.5 1275.72 2051.56 1242.98 2106.12 1242.98"/><polygon class="cls-17" points="2085.39 1275.72 2099.49 1275.72 2103.41 1202.98 2089.32 1202.98 2085.39 1275.72"/><rect class="cls-5" x="1949.65" y="1227.44" width="40.61" height="40.61" transform="translate(3939.91 2495.5) rotate(180)"/><polygon class="cls-18" points="2382.54 1686.02 2368.02 1585.23 2139.54 1585.23 2120.95 2269.35 2463.94 2269.35 2463.94 1686.02 2382.54 1686.02"/><polygon class="cls-19" points="2287.99 2269.35 2053.91 2269.35 2131.81 1585.23 2319.7 1585.23 2287.99 2269.35"/><rect class="cls-20" x="2019.3" y="2254.87" width="488.84" height="57.93"/><polygon class="cls-18" points="2284.34 1813.86 2140.78 1813.86 2146.89 1760.65 2286.38 1760.65 2284.34 1813.86"/><polygon class="cls-18" points="2281.3 1893.27 2131.65 1893.27 2138.28 1835.53 2283.51 1835.53 2281.3 1893.27"/><polygon class="cls-18" points="2277.99 1979.7 2121.71 1979.7 2128.94 1916.83 2280.39 1916.83 2277.99 1979.7"/><polygon class="cls-18" points="2274.37 2074.15 2110.86 2074.15 2118.76 2005.41 2277 2005.41 2274.37 2074.15"/><polygon class="cls-18" points="2270.4 2177.77 2098.94 2177.77 2107.62 2102.31 2273.29 2102.31 2270.4 2177.77"/><rect class="cls-21" x="1740.37" y="1346.09" width="13.48" height="8.09"/><polygon class="cls-14" points="1753.08 1284.49 1751.88 1282.73 1768.41 1271.39 1782.45 1271.39 1782.45 1273.52 1769.07 1273.52 1753.08 1284.49"/><rect class="cls-14" x="1734.38" y="1278" width="24.79" height="71.42" rx="4.74"/><rect class="cls-15" x="1728.9" y="1294.87" width="35.52" height="16.18"/><rect class="cls-21" x="1794.29" y="1346.09" width="13.48" height="8.09"/><polygon class="cls-14" points="1807 1284.49 1805.79 1282.73 1822.33 1271.39 1836.37 1271.39 1836.37 1273.52 1822.99 1273.52 1807 1284.49"/><rect class="cls-14" x="1788.3" y="1278" width="24.79" height="71.42" rx="4.74"/><rect class="cls-15" x="1782.82" y="1294.87" width="35.52" height="16.18"/><rect class="cls-21" x="1850.46" y="1346.09" width="13.48" height="8.09"/><polygon class="cls-14" points="1863.16 1284.49 1861.96 1282.73 1878.49 1271.39 1892.53 1271.39 1892.53 1273.52 1879.15 1273.52 1863.16 1284.49"/><rect class="cls-14" x="1844.47" y="1278" width="24.79" height="71.42" rx="4.74"/><rect class="cls-15" x="1838.99" y="1294.87" width="35.52" height="16.18"/><path class="cls-21" d="M1631.81,1595.57a121.92,121.92,0,0,1-35.31-5.65l1.39-4.58c32.58,9.89,60.36,6.26,82.56-10.76,69-52.95,64.53-218.69,64.47-220.36l4.79-.16a561.08,561.08,0,0,1-6.17,91.24c-10,65.38-30.29,110.16-60.17,133.07C1668.43,1589.83,1651.17,1595.57,1631.81,1595.57Z"/><path class="cls-21" d="M1685.69,1595.57a121.92,121.92,0,0,1-35.31-5.65l1.39-4.58c32.58,9.89,60.36,6.26,82.56-10.76,69-52.95,64.53-218.69,64.47-220.36l4.79-.16a561.08,561.08,0,0,1-6.17,91.24c-10.05,65.38-30.29,110.16-60.17,133.07C1722.31,1589.83,1705.05,1595.57,1685.69,1595.57Z"/><path class="cls-21" d="M1741.54,1595.57a121.92,121.92,0,0,1-35.31-5.65l1.39-4.58c32.59,9.89,60.36,6.26,82.56-10.76,69-52.95,64.53-218.69,64.47-220.36l4.79-.16a559.75,559.75,0,0,1-6.17,91.24c-10,65.38-30.29,110.16-60.17,133.07C1778.16,1589.83,1760.9,1595.57,1741.54,1595.57Z"/><path class="cls-5" d="M2435.67,1455.38h-302a10.28,10.28,0,0,1-10.28-10.28h0a10.28,10.28,0,0,1,10.28-10.28h302A10.28,10.28,0,0,1,2446,1445.1h0A10.28,10.28,0,0,1,2435.67,1455.38Z"/><polygon class="cls-18" points="2411.77 1506.34 2157.59 1506.34 2136.9 1455.04 2432.46 1455.04 2411.77 1506.34"/><polygon class="cls-5" points="2327.89 1436.45 2386.3 1436.45 2391.27 1352.91 2322.92 1352.91 2327.89 1436.45"/><polygon class="cls-15" points="2384.37 1399.61 2382.43 1432.34 2331.76 1432.34 2329.81 1399.61 2384.37 1399.61"/><polygon class="cls-17" points="2363.65 1432.34 2377.74 1432.34 2381.67 1359.61 2367.57 1359.61 2363.65 1432.34"/></g><path class="cls-15" d="M1820.86,698.84,1944.43,777,2010,673.43a73.11,73.11,0,0,0-22.69-100.87h0a73.1,73.1,0,0,0-100.88,22.69Z"/><path class="cls-15" d="M1593.3,540.13c22.49-32,170.18,24.13,331.33,126.1s275.1,211.4,255.82,245.42l.16.1-16.74,26.45-28.39-18c-60-9.45-170-59.34-287.13-133.45S1639,634.62,1604.8,584.44l-28.26-17.88,16.74-26.45Z"/><ellipse class="cls-22" cx="1870.14" cy="752.34" rx="71.33" ry="347.43" transform="translate(234.42 1930.41) rotate(-57.68)"/><ellipse class="cls-23" cx="1869.27" cy="758.6" rx="60.68" ry="328.47" transform="translate(228.72 1932.59) rotate(-57.68)"/><ellipse class="cls-5" cx="1880.05" cy="728.51" rx="13.15" ry="73.19" transform="translate(259.17 1927.69) rotate(-57.68)"/><ellipse class="cls-5" cx="1843.74" cy="785.89" rx="13.15" ry="73.19" transform="matrix(0.53, -0.85, 0.85, 0.53, 193.78, 1923.71)"/><ellipse class="cls-5" cx="1702.21" cy="656.15" rx="13.15" ry="73.19" transform="translate(237.56 1743.74) rotate(-57.68)"/><path class="cls-5" d="M1857.66,763.89c20.57,13,39.13,20.56,41.47,16.87s-12.44-17.24-33-30.25-39.13-20.57-41.47-16.87S1837.1,750.88,1857.66,763.89Z"/><path class="cls-22" d="M1988,803c14.42,9.12,27.44,14.42,29.08,11.83s-8.72-12.09-23.14-21.21-27.43-14.42-29.07-11.83S1973.62,793.85,1988,803Z"/><path class="cls-22" d="M1779.12,672.41c14.42,9.12,27.43,14.42,29.07,11.83s-8.72-12.09-23.14-21.21-27.43-14.42-29.07-11.83S1764.7,663.29,1779.12,672.41Z"/><path class="cls-22" d="M1773.15,730.61c10.25,6.49,19.51,10.26,20.67,8.42s-6.2-8.6-16.45-15.09-19.51-10.25-20.68-8.41S1762.89,724.13,1773.15,730.61Z"/><path class="cls-22" d="M1942.35,848.23c10.25,6.49,19.51,10.26,20.67,8.42s-6.2-8.6-16.45-15.09-19.52-10.25-20.68-8.41S1932.09,841.74,1942.35,848.23Z"/><ellipse class="cls-5" cx="2021.59" cy="858.24" rx="13.15" ry="73.19" transform="translate(215.39 2107.66) rotate(-57.68)"/><path class="cls-22" d="M1939.91,611.79h0a24.7,24.7,0,0,0,25.78,23.57l235.4-10.55A24.69,24.69,0,0,0,2224.66,599h0a24.7,24.7,0,0,0-25.78-23.56L1963.48,586A24.69,24.69,0,0,0,1939.91,611.79Z"/><path class="cls-22" d="M2195.2,622.48h0c12.86,4.53,25,3.39,27.06-2.53l69.21-150.07c2.08-5.93-6.66-14.4-19.52-18.92h0c-12.87-4.52-25-3.39-27.07,2.54l-69.21,150.07C2173.59,609.49,2182.33,618,2195.2,622.48Z"/><circle class="cls-22" cx="2203.87" cy="598.46" r="37.73"/><circle class="cls-22" cx="1966.4" cy="609.92" r="34.45"/><circle class="cls-24" cx="2203.87" cy="598.46" r="17.43"/><circle class="cls-24" cx="1966.16" cy="610.34" r="16.79" transform="translate(-87.63 468.06) rotate(-13.28)"/><path class="cls-14" d="M959.42,986s-14.09-55.42-30-67.63-45.09,34.76-37.58,39.45,14.09,3.76,14.09,3.76-4.69,39.45,19.73,48.84S959.42,996.37,959.42,986Z"/><path class="cls-5" d="M1690.26,1584.38H1226a35.38,35.38,0,0,1-35.37-35.38h0a35.37,35.37,0,0,1,35.37-35.37h464.31a35.37,35.37,0,0,1,35.37,35.37h0A35.38,35.38,0,0,1,1690.26,1584.38Z"/><path class="cls-14" d="M1292.59,1584.86c27.4,27.36,89.31,46.46,161.3,46.46s133.9-19.1,161.31-46.46Z"/><path class="cls-14" d="M1694,2315c-41.29-34.53-134.56-58.62-243-58.62s-201.74,24.09-243,58.62Z"/><rect class="cls-14" x="1429.45" y="1594.26" width="28.76" height="721.87"/><rect class="cls-14" x="1409.32" y="1850.22" width="69.02" height="434.27"/><rect class="cls-14" x="1409.32" y="1618.02" width="69.02" height="113.04"/><path class="cls-25" d="M1361.87,791.37s32.35-23.71,58.83-2.53S1447,828.3,1447,828.3s51.9-27.73,79.94,8.44,15.77,57.69,15.77,57.69,36.64-10.42,61,17.68-5.77,67.28-5.77,67.28,34.66,14.53,2.33,63.95-108.4,32.35-108.4,32.35,11.3,47.34-50.72,51.24-89.36-46.78-89.36-46.78c-17.92-19.56-36.83-38.93-6.7-67.24-40.09-25.56-39.47-44.53-5.8-58.15,0,0-36.32,22-51.79-21.35s53.16-73,53.16-73-44.37-29.86-24.8-54.25S1361.87,791.37,1361.87,791.37Z"/><path class="cls-5" d="M1200.93,1028.61l-104.77,101.56L958,974.22l-44.39,75.62s101.61,162.31,134.65,200c48,54.75,275.79-147.53,283-190.67C1342.46,992.81,1234.93,963.23,1200.93,1028.61Z"/><path class="cls-26" d="M1560.57,1597c-22.57-234-92.19-302.51-92.19-302.51H1265.59c-38.53,115.41-50.58,217.8-51.93,302.51Z"/><path class="cls-27" d="M1225.71,1426.62c36.82,10.6,135.87-1.31,219.25-28.31l73.53-43.57s-71-103-68.74-115.89c6.42-33.85,19.63-87.1,25.43-137.48q1-8.17,1.66-16.22c3.22-37.6,1.44-72.22-11.49-94.47C1436,937,1248.69,963.37,1228.41,997c-20.25,33.75-34.42,74.1-37.27,102.63-.81,8.49,3.67,30.27,10.64,56.53s16.08,57.2,24.27,84.27C1237.47,1277.61,1225.71,1426.62,1225.71,1426.62Z"/><path class="cls-5" d="M1226.66,1228.53c9.64,59.7-1.9,572.27-1.9,572.27-30-12.67-72.78-44.68-68.84-103.35,0,0,53.13-373,47.29-428.12s-53.06-194.81,29.73-284.85c22.18-17.89,51-23.18,51-23.18s29.45-9.09,30.25-2.83C1294.46,976.85,1207.27,1053,1226.66,1228.53Z"/><path class="cls-28" d="M1254.46,857.32l23.46,81.16,12.33,42.64a16.46,16.46,0,0,0,2.16,2.87c14.08,15.36,67.24,28.25,93.74,6.89,9.17-7.41,7.79-24.37,2.12-43.36-9.1-30.53-29.3-66.25-34.46-75.83-7-12.78-12.58-23.36-14.79-28.24C1319.28,846.64,1274.54,854.08,1254.46,857.32Z"/><path class="cls-29" d="M1277.92,938.48l12.33,42.64a16.46,16.46,0,0,0,2.16,2.87c5.19-1.66,12.19-6.17,20.69-17.5,18.52-24.69.18-87.34.18-87.34Z"/><path class="cls-28" d="M1160.2,847.87c5.75,66.25,57.14,125.69,90.55,124.27,54.41-2.31,111.67-75,105.92-141.31S1302.29,714.69,1248,719.39,1154.46,781.62,1160.2,847.87Z"/><path class="cls-25" d="M1176.83,759.16S1296.89,812,1371.28,893c8.67-18.89-1.25-29.4,3-45.82,16.19-63.09,0-109.29-49.27-136.33C1269.39,680.38,1202.5,707.84,1176.83,759.16Z"/><path class="cls-25" d="M1192.11,765.15s-29.42,27.47-32.37,79.3c-10.58-51.31,8.06-156.34,122.87-146.06S1192.11,765.15,1192.11,765.15Z"/><circle class="cls-28" cx="1324.83" cy="846.08" r="23.29" transform="translate(24.54 1729.4) rotate(-66.75)"/><path class="cls-29" d="M1327.9,864.67a1.42,1.42,0,0,0,.41-.2,1.74,1.74,0,0,0,.49-2.41c-3.71-5.6-5-10.74-3.85-15.27,1.59-6.22,7.36-9.33,7.42-9.37a1.73,1.73,0,1,0-1.61-3.07c-.29.15-7.17,3.81-9.16,11.53-1.43,5.54,0,11.63,4.3,18.1A1.75,1.75,0,0,0,1327.9,864.67Z"/><path class="cls-29" d="M1216.2,907.91a20.39,20.39,0,0,0,5.34-2.67,1.72,1.72,0,1,0-2-2.77c-.32.23-8,5.7-14.35.88a2.72,2.72,0,0,1-1.17-2.23c-.19-5,8.19-13.43,11.43-16.28a1.72,1.72,0,0,0-2.27-2.59c-1.32,1.16-12.88,11.53-12.61,19a6.23,6.23,0,0,0,2.55,4.86C1207.67,909.56,1212.59,909.1,1216.2,907.91Z"/><path class="cls-30" d="M1244.63,866c-10.4,3.24-22.94,5.13-27.52,2h0c-5.57-3.78-12-16.83-8.87-24.6,3.32-8.18,24.83-20.72,45.51-16.38,2.66.56,5.18,2.83,7.1,6.39,3.59,6.64,4.26,16,1.63,22.7a8.34,8.34,0,0,1-3,3.29C1255.89,861.91,1250,864.29,1244.63,866Zm-35.39-22.15c-2.88,7.1,3.19,19.7,8.48,23.28,4.25,2.88,16.76.89,26.59-2.16,9.23-2.88,16.13-6.58,17.16-9.21,2.94-7.53,1.24-16.58-1.58-21.8-1.76-3.27-4-5.34-6.36-5.83-14.06-3-28.88,2.32-37.42,8.38C1212.6,839,1210.15,841.57,1209.24,843.81Z"/><path class="cls-30" d="M1172,883c-3.17.61-10.82,1.81-13.37-.34-4.2-3.52-7.25-9.88-7.79-16.2-.33-4,.38-7.21,2-9.14,9.27-10.91,31.7-12.87,36.91-8.62,5.49,4.47,6.88,19.18,4.29,24h0a9.93,9.93,0,0,1-3.1,3.18C1186.57,879,1178.9,881.66,1172,883Zm21.09-10.78c2.33-4.36.92-18.65-4-22.68s-26.65-1.81-35.39,8.49c-1.42,1.68-2.06,4.72-1.76,8.34.52,6,3.42,12.11,7.41,15.46,1.5,1.26,6.28,1.3,12.47.1,8.71-1.69,19.14-5.67,21.29-9.71Z"/><path class="cls-31" d="M1305.94,832.15a1.72,1.72,0,0,0-.83-3.33l-40.46,7c-3-8.15-12-12.18-24.51-10.83-15.17,1.63-32.3,11-33.83,22.17a121,121,0,0,1-12.3,3.6c-6-6.82-18.81-6.13-29.16-2.27s-16.55,10.12-16.07,16a1.73,1.73,0,0,0,3.44-.29c-.35-4.19,5.35-9.34,13.84-12.51,9.24-3.44,21.28-4.31,25.89,2a1.71,1.71,0,0,0,1.73.67,116.28,116.28,0,0,0,14.85-4.34,1.72,1.72,0,0,0,1.12-1.55c.35-9.61,16.58-18.52,30.85-20,5.49-.59,18.56-.81,21.28,9.79a1.72,1.72,0,0,0,2,1.27l42-7.21Z"/><path class="cls-25" d="M1239.51,850.57c1.86,4.38,5.38,7.08,7.86,6s3-5.45,1.15-9.83-5.37-7.08-7.86-6S1237.66,846.2,1239.51,850.57Z"/><path class="cls-25" d="M1175.8,866.42c1.85,4.38,5.37,7.07,7.86,6s3-5.46,1.15-9.84-5.38-7.07-7.87-6S1173.94,862,1175.8,866.42Z"/><path class="cls-5" d="M1183.9,921.84s15.06-40.89,28-43.48,90-12.69,90-12.69,10.25,23,34.44,8.2c3.44,34.44-39.17,100.91-72.77,100.91C1205.85,974.78,1183.9,921.84,1183.9,921.84Z"/><path class="cls-5" d="M1318.28,890.68a14,14,0,0,1-3.59-.47c-6.84-1.76-13.12-8.41-15.64-16.54-3.46-11.14-4.77-36.79,3.53-43.63a2.07,2.07,0,0,1,2.64,3.2c-5.68,4.68-6.07,26.75-2.21,39.2,2.08,6.7,7.31,12.36,12.72,13.76a9.79,9.79,0,0,0,9.69-2.76c9.08-8.68,16.36-21.91,16.43-22a2.07,2.07,0,1,1,3.64,2c-.31.56-7.64,13.92-17.2,23.05A14.35,14.35,0,0,1,1318.28,890.68Z"/><path class="cls-26" d="M1240.94,1450.35S1102,1558.86,1080,1612s12.52,120.55,60.16,137,245.85,15.48,291.66-23,122.48-149.25,120.64-215.21S1358.22,1422.87,1240.94,1450.35Z"/><path class="cls-32" d="M1075.34,1653.43l-68.75,538.23,60.78,9.75,146.82-520.2C1209.06,1565.89,1080.23,1583.76,1075.34,1653.43Z"/><path class="cls-33" d="M936.51,2314.11c-.36-12.76,43.57-44.87,43.57-44.87l25.26-80.94,64.91-9.79,24.42,42.17-87.3,83.73Z"/><polygon class="cls-33" points="1079.58 2276.86 1021.88 2216.91 1094.71 2220.39 1095.26 2292.39 1079.58 2276.86"/><path class="cls-32" d="M1230.64,1653.64,1412.05,2165l58.64-18.71-103.59-530.5C1310.5,1515.19,1203.59,1589.26,1230.64,1653.64Z"/><path class="cls-33" d="M1350.58,2271.6c-2.06-12.6,37.17-50.31,37.17-50.31l14.18-83.6,63-18.41,29.85,38.53-75.29,94.68Z"/><polygon class="cls-33" points="1496.04 2231.27 1445.3 2165.32 1494.8 2157.51 1504.99 2228.78 1496.04 2231.27"/><path class="cls-5" d="M1642.75,1645.52s-45.07,78.5-277,110.5h-7.27s-.66-177.48,1.75-333.76c.91-59.52-11.6-312.92,30.94-436.28,9.42-18.64-1.78-25.76-1.06-32.55,40.89,2.1,58.55,9,89,32.27,42,36.55,36,250,36,250Z"/><path class="cls-34" d="M1469.69,1124.76s-2.92,235.84-104,310.32c.91-59.52,2.28-116,4.29-158.35C1426.64,1245,1469.69,1124.76,1469.69,1124.76Z"/><polygon class="cls-14" points="1156.51 1211.97 1102.36 1192.36 1098.42 1221.38 1141.56 1250.74 1156.51 1211.97"/><polygon class="cls-35" points="1088.26 1186.75 1003.71 1132.47 1004.66 1132.76 975.45 1131.22 975.46 1130.39 1004.68 1129.17 1005.17 1129.15 1005.64 1129.45 1090.2 1183.73 1088.26 1186.75"/><path class="cls-14" d="M1110.67,1196.38s-57.25-42.64-62.94-39.19,12.19,20.85,12.19,20.85-8.74-4.17-11.14.28c-3,5.62,6.94,11,6.94,11s-6.72,1.66-6.94,5.38,6.75,10.16,6.75,10.16-9.32,2.23-7.82,6.92,7.24,18.1,36.83,24.28S1132.41,1210.91,1110.67,1196.38Z"/><path class="cls-14" d="M1118.71,1204.64s-10.47-23.65-17.56-28.71-29.73-12.16-29.73-12.16-4.39,2.7,1.35,10.13,22.63,14.86,22.63,14.86S1110.6,1213.42,1118.71,1204.64Z"/><path class="cls-5" d="M1360.82,1079.73l-64.15,161.37-171.41-42.56-11.86,93.34s179.21,73.15,228.73,65.54,157-239.33,152.51-282.84C1487.78,1007.67,1376.26,1007.67,1360.82,1079.73Z"/><path class="cls-35" d="M937.15,944.38,850.5,893.53a6.74,6.74,0,0,0-9.18,2.48l-4,6.87-2.08-1.19,4-6.87a9.14,9.14,0,0,1,12.45-3.36l86.67,50.86Z"/><path class="cls-35" d="M841.06,895.71c2.45,1.5,1,8.25-3.15,15.08s-9.58,11.15-12,9.65-1-8.26,3.16-15.09S838.61,894.2,841.06,895.71Z"/><path class="cls-5" d="M838.68,899.58c1.39.85.17,5.34-2.7,10s-6.33,7.8-7.72,6.95-.17-5.34,2.71-10S837.3,898.73,838.68,899.58Z"/><path class="cls-14" d="M920.77,922.73c-1.09.72-10.86,4.34-6.52,14.84s13,12.67,13,12.67-10.86,22.81-5.43,31.5l31.13-13C947.2,948.07,921.86,922,920.77,922.73Z"/><path class="cls-35" d="M1102.37,1189.73a.56.56,0,0,1-.33-.1L1069,1168a.6.6,0,0,1-.17-.83.61.61,0,0,1,.83-.17l33,21.62a.6.6,0,0,1-.32,1.1Z"/><path class="cls-35" d="M921.35,982.05c-5.1-8.15,3.36-27.62,5.1-31.44-2.19-.75-9-3.76-12.75-12.81-2.73-6.6-.64-11.74,6.22-15.29a5,5,0,0,0,.52-.28.75.75,0,0,1,.71-.05c3.07,1.14,26.81,26.38,32.41,46.36l-1.15.33c-5.44-19.4-28.67-44-31.54-45.51l-.4.21c-2.31,1.2-9.36,4.85-5.66,13.77,4.16,10.08,12.54,12.3,12.62,12.32l.71.18-.31.66c-.11.22-10.66,22.61-5.47,30.92Z"/><rect class="cls-14" x="825.09" y="1417.48" width="15.35" height="99.18" transform="translate(-854.14 1454.73) rotate(-60)"/><path class="cls-36" d="M2271,1738.22s46,30.24,64.41,34.18,92-19.72,102.54-7.89-76.25,74.94-99.91,78.88-117-57.84-117-57.84Z"/><path class="cls-21" d="M1477.39,1475.15s369.19-65.84,435.37-34.2S2271,1738.22,2271,1738.22L2243.63,1792s-385.54-184.14-408.55-187-402.8,143.86-460.35,112.21S1413.17,1480.58,1477.39,1475.15Z"/><path class="cls-14" d="M1358.53,1979.31A114.32,114.32,0,1,1,1472.85,1865,114.46,114.46,0,0,1,1358.53,1979.31Zm0-214.46A100.14,100.14,0,1,0,1458.67,1865,100.25,100.25,0,0,0,1358.53,1764.85Z"/><path class="cls-14" d="M1422.78,1767.74l-61.64,100.71a31.28,31.28,0,0,0,11,43.42l260.34,150.52a31.3,31.3,0,0,0,41.31-9.16L1754,1938.58Z"/><path class="cls-37" d="M2267.81,1901.94l-37,11.45-403.08,124.84a277.47,277.47,0,0,1-195.39-45.29l-300.72-182-46.72-28.26-13.85-8.38,8.63-1.66,384-73.63c79.32-12.85,206-21.42,291.34,22.81Z"/><path class="cls-14" d="M2267.81,1898.51l-37,11.45c-102.13-55.38-349-187.76-382.33-191.69-42.14-5-493.27,94.2-493.27,94.2l-23.59-4.92-46.72-28.26-5.22-10,384-73.63c79.32-12.85,206-21.42,291.34,22.81Z"/><path class="cls-5" d="M2449.13,1908l-491.72-271.45c-42.15-23.27-97.16-21.55-145-15.92l-452.21,77.53c-36.45,4.29-58.12-12.47-90.1-30.49l-371-209.12a42.36,42.36,0,0,0-54.59,11h0a42.35,42.35,0,0,0,13,62.83l409.81,222.41a173.31,173.31,0,0,0,104.7,19.56l429.33-73.81c48.39-6.22,101.37-8.55,144.15,14.9l468.3,256.7a36.6,36.6,0,0,0,49.46-14.09h0A36.59,36.59,0,0,0,2449.13,1908Z"/><path class="cls-5" d="M816.47,1456.87h0a41.26,41.26,0,0,1-57,11.88l-131.37-86a41.26,41.26,0,0,1-11.88-57h0a41.27,41.27,0,0,1,57-11.89l131.36,86A41.27,41.27,0,0,1,816.47,1456.87Z"/><path class="cls-38" d="M1403.53,1688.55c26.51-38.8,63.81-103.82,73.86-213.4-34.29-3.12-116.29,11.06-151.32-12.37s-111.51-108.43-139.33-118.94-56.92-19.32-126-8.12c-50.39,8.17-77.06,7.47-117.21,59.41-63.83,82.58,44.66,117.25,132.35,164.25,26.31,9.41,147.16,78.67,241.13,133.23C1347.83,1702.28,1374.88,1698.15,1403.53,1688.55Z"/><path class="cls-36" d="M1032.19,1358.17c14.68,9.47-53.44,82-95.71,79.3l-47-46.72L940.9,1311l59.73,30.84Z"/><path class="cls-36" d="M863.72,1185c78.67,30.1,116.76,97.19,110.42,156.37-25.26,58.83-121,81.73-197.06,45.43-71.6-34.2-108.28-103.37-85.58-156.24S789.6,1156.61,863.72,1185Z"/><path class="cls-36" d="M1084.53,1448.06l133.55,89.87,306.37-1.49-7.94,43.68s-271.16,34.78-310.38,40-203.05-98.78-203.05-98.78C949.28,1485.56,992,1416,1084.53,1448.06Z"/><path class="cls-14" d="M1692.07,2021.32h0a15.39,15.39,0,0,1-21,5.63l-848.6-498.83a15.39,15.39,0,0,1-5.64-21h0a15.39,15.39,0,0,1,21-5.63l848.61,498.83A15.39,15.39,0,0,1,1692.07,2021.32Z"/><path class="cls-14" d="M794.67,1494.12a15.23,15.23,0,0,0-4.73-21.14L609.48,1360a15.37,15.37,0,0,0-21.16,5h0a15.38,15.38,0,0,0,5,21.17l180.25,112.83a15.23,15.23,0,0,0,20.89-4.68Z"/><path class="cls-39" d="M1636.14,1577.6l-50.81,66.27-300.52,54.24c-84,14-97.84-16.57-104.3-65.44h0S1637.6,1575.7,1636.14,1577.6Z"/><path class="cls-5" d="M1640.42,1590.65l-463.33,61.19a14.35,14.35,0,0,1-16.1-12.34h0a14.36,14.36,0,0,1,12.34-16.1l463.34-61.19a14.34,14.34,0,0,1,16.09,12.34h0A14.35,14.35,0,0,1,1640.42,1590.65Z"/><circle class="cls-14" cx="1234.44" cy="1671.99" r="10.26"/><path class="cls-14" d="M2069.18,2240.79l-160.42-375.57a108.34,108.34,0,0,0-112.5-39.5h0c-76.07,19-107.37,110-59.08,171.82l103.68,243.25Z"/><circle class="cls-39" cx="1819.66" cy="1930.38" r="35.79"/><polygon class="cls-37" points="1694.52 2252.63 2061.82 2120.39 2139.48 2254.72 1694.52 2252.63"/><circle class="cls-14" cx="2032.68" cy="2200.61" r="20.17"/><path class="cls-36" d="M1523.34,1534.68s94,1.34,111.41,21.48-109.39,26.17-123.49,19.46S1499.85,1542.73,1523.34,1534.68Z"/><path class="cls-25" d="M825.11,1169.46s42-.94,72.76,68.09c11.55,25.9,13.68,89.2,28.75,110.42,21.33,30,54.39,30,74.23,41.36,33.87,19.35-11.66,100.74,46.66,161.18-75-14.52-263.08-141.79-305.41-180.5s-87.69-93.28-42.91-164.18C736.5,1163.86,786.1,1162.22,825.11,1169.46Z"/><path class="cls-14" d="M1434.76,2233.79h763a58.44,58.44,0,0,1,58.44,58.44V2313a0,0,0,0,1,0,0H1376.32a0,0,0,0,1,0,0v-20.8a58.44,58.44,0,0,1,58.44-58.44Z"/></g></svg>